<svg xmlns="http://www.w3.org/2000/svg" viewBox="0 0 1024 512"><defs><style>.cls-1{fill:#84bd00;}.cls-2{fill:#fff;}</style></defs><title>Endjin-Logo-1024px</title><g id="Background"><g id="Graphic"><polyline class="cls-1" points="0.45 512 0.45 0 1024.45 0 1024.45 512"/></g></g><g id="Endjin-Logo_WorkSmarter-1024px" data-name="Endjin-Logo WorkSmarter-1024px"><g id="endjin-logo"><path class="cls-2" d="M313.71,248.38h-77c-.24,29.75,18,46.11,45.78,46.11,19.74,0,30-6.45,33.64-6.45,2.7,0,3.88,1.48,3.88,5.44l-.23,5.44a7,7,0,0,1-4.4,6.45,88.93,88.93,0,0,1-35.55,7.68c-42.39.51-65-26.76-65-66.42,0-38.18,22.89-63.21,57.22-63.21,29.24,0,49.22,21.08,47.52,59.49C319.07,246.41,317.12,248.38,313.71,248.38Zm-44.78-48.6c-15.6,0-30.21,11.4-31.67,33l60.41-.25C297.87,212.2,286.15,199.78,268.93,199.78ZM430.36,310.56c-3.64,0-5.61-2-5.61-5.7V245.67c0-5-.24-10.88-.47-15.12-1.22-16.32-9-27.51-26.56-27.51-9.25,0-20.46,4-30,14.13v87.74c0,3.72-1.95,5.69-5.6,5.69h-11c-3.65,0-5.6-2-5.6-5.69V192.37c0-3.47,1.95-5.68,5.11-5.94l9.47-1c3.67-.25,5.6,1.48,5.86,5l.24,10.4c11-12.64,23.61-17.09,37.75-17.09,18.52,0,31.91,8.42,38.24,23.53,4.14,9.68,4.63,22.32,4.63,35.46v62.21c0,3.72-2,5.69-5.41,5.69Zm135.65.51c-3.41.5-5.6-1.24-5.85-4.46l-.24-10.67c-10.72,12.65-24.35,17.36-38,17.36-28.25,0-51.17-21.07-51.17-62S495.1,183.67,536,183.67a74.51,74.51,0,0,1,22.64,3.22V126.2c0-3.48,2-5.2,5.42-5.71l10.94-1c3.67-.5,5.85,1.49,5.85,5.2V304.4c0,3.47-1.71,5.44-5.1,5.7ZM558.7,206.22a66.63,66.63,0,0,0-23.39-4.46c-25.57,0-41.64,16.32-41.64,46.59,0,32.22,16.56,45.85,33.37,45.85,10.48,0,21.19-3.47,31.66-15.11ZM632,293c0,38.42-8.54,53-32.66,75.1-2.91,2.48-5.59,2-7.78-.49l-5.41-5.71c-2.44-2.49-2.21-5.19,0-7.91,20.26-21.79,23.67-31.49,23.67-63.46v-96.9a5.44,5.44,0,0,1,5.12-5.7l11.21-1c3.64-.23,5.85,1.49,5.85,5.21Zm3.89-148.71c0,8.92-6.58,14.88-15.11,14.88-9.25,0-14.88-6-14.88-15.12,0-8.93,6.33-14.64,15.1-14.64s14.88,6,14.88,14.89Zm49.69,0c0,8.92-6.57,14.88-15.09,14.88-9.26,0-14.88-6-14.88-15.12,0-8.93,6.33-14.64,15.09-14.64s14.88,6,14.88,14.89Zm-9.47,166.31c3.66,0,5.62-2,5.62-5.7V192.1c0-3.71-2.19-5.44-5.85-5.21l-11.2,1a5.43,5.43,0,0,0-5.11,5.7V304.88c0,3.72,1.93,5.7,5.6,5.7Zm117.42,0c-3.67,0-5.6-2-5.6-5.7V245.67c0-5-.24-10.88-.5-15.12-1.22-16.32-9-27.51-26.54-27.51-9.26,0-20.47,4-30,14.13v87.74c0,3.72-2,5.69-5.61,5.69h-11c-3.65,0-5.6-2-5.6-5.69V192.37c0-3.47,2-5.68,5.11-5.94l9.47-1c3.66-.25,5.62,1.48,5.85,5l.24,10.4c11-12.64,23.64-17.09,37.77-17.09,18.5,0,31.9,8.42,38.24,23.53,4.13,9.68,4.62,22.32,4.62,35.46v62.21c0,3.72-2,5.69-5.41,5.69Z"/></g></g></svg>